<?xml version="1.0" encoding="UTF-8"?>
<svg version="1.1" xmlns="http://www.w3.org/2000/svg" width="500" height="500">
<path d="M0 0 C165 0 330 0 500 0 C500 165 500 330 500 500 C335 500 170 500 0 500 C0 335 0 170 0 0 Z " fill="#FEFEFE" transform="translate(0,0)"/>
<path d="M0 0 C2.0813047 1.21682578 3.68767768 2.4865952 5.421875 4.16015625 C6.06769531 4.77632813 6.71351563 5.3925 7.37890625 6.02734375 C12.8468806 11.75145539 14.46762512 16.78041095 14.671875 24.66015625 C14.37800714 34.9455312 10.76869226 40.14339567 3.421875 47.16015625 C-0.8319396 50.91294419 -4.34049772 51.29034353 -9.953125 51.47265625 C-16.07670576 51.75227181 -18.75753929 53.29763605 -23.25097656 57.29394531 C-33.81794914 65.76792122 -48.68176038 63.67125285 -61.40283203 63.57543945 C-75.61767953 63.5031686 -88.98793339 63.54899699 -99.86328125 74.1484375 C-109.21228508 85.11594769 -109.88154653 96.14820093 -109.7734375 110.0390625 C-109.7696999 111.46109314 -109.76685646 112.88312637 -109.76486206 114.30516052 C-109.75728431 118.01888338 -109.73768739 121.73244579 -109.7154541 125.44610596 C-109.69486826 129.2472517 -109.68583331 133.04842377 -109.67578125 136.84960938 C-109.65443495 144.28653088 -109.62037131 151.72332095 -109.578125 159.16015625 C-108.97484375 158.4125 -108.3715625 157.66484375 -107.75 156.89453125 C-106.95078125 155.9096875 -106.1515625 154.92484375 -105.328125 153.91015625 C-104.53921875 152.935625 -103.7503125 151.96109375 -102.9375 150.95703125 C-100.41533059 147.9671748 -97.75744363 145.25211794 -94.890625 142.59765625 C-92.23399129 139.6880098 -92.43447832 136.44794089 -92.3671875 132.71484375 C-92.33882813 131.6371875 -92.31046875 130.55953125 -92.28125 129.44921875 C-92.22970653 127.19676926 -92.18528134 124.94414413 -92.1484375 122.69140625 C-91.88197584 113.34304307 -90.75626438 105.64409462 -84.171875 98.65625 C-76.39961081 91.36022749 -67.59910393 89.68871196 -57.29296875 89.8671875 C-56.35127335 89.87143234 -55.40957794 89.87567719 -54.43934631 89.88005066 C-51.46446782 89.89669409 -48.49029486 89.93431853 -45.515625 89.97265625 C-43.4850359 89.98772165 -41.45443607 90.00140679 -39.42382812 90.01367188 C-34.47499319 90.04655047 -29.52667825 90.09823185 -24.578125 90.16015625 C-24.44092041 89.37914551 -24.30371582 88.59813477 -24.16235352 87.79345703 C-23.13910371 83.18134989 -20.0256697 80.24760924 -16.578125 77.16015625 C-11.76817261 74.12588608 -7.22043094 73.75744704 -1.6796875 74.65234375 C3.95907733 76.01487057 7.72157937 78.75980469 11.421875 83.16015625 C15.03688108 89.39292536 15.69758715 96.22370489 13.8828125 103.24609375 C11.52419166 109.18152422 7.60050902 113.53511244 2.421875 117.16015625 C-3.13500254 118.90890446 -8.63422742 118.69640386 -14.203125 117.16015625 C-18.56855615 114.57323409 -21.67558547 111.3154636 -24.578125 107.16015625 C-24.578125 106.50015625 -24.578125 105.84015625 -24.578125 105.16015625 C-30.16531118 105.22918565 -35.75175989 105.31722675 -41.33837891 105.42260742 C-43.23738399 105.45578418 -45.13648596 105.48383856 -47.03564453 105.5065918 C-49.77157735 105.54027143 -52.50662811 105.59259345 -55.2421875 105.6484375 C-56.50816269 105.65802238 -56.50816269 105.65802238 -57.79971313 105.6678009 C-63.55562772 105.8101507 -67.68682459 106.88842021 -72.328125 110.53515625 C-75.2401495 114.3207881 -75.84229647 118.22683366 -75.9921875 122.8984375 C-76.02779785 123.86048096 -76.0634082 124.82252441 -76.10009766 125.8137207 C-76.13409668 127.02116943 -76.1680957 128.22861816 -76.203125 129.47265625 C-76.38875 135.25796875 -76.38875 135.25796875 -76.578125 141.16015625 C-67.668125 141.16015625 -58.758125 141.16015625 -49.578125 141.16015625 C-48.918125 139.51015625 -48.258125 137.86015625 -47.578125 136.16015625 C-45.921875 134.39453125 -45.921875 134.39453125 -44.078125 132.91015625 C-43.4696875 132.41 -42.86125 131.90984375 -42.234375 131.39453125 C-37.41163238 127.80022307 -31.31620813 128.44959923 -25.578125 129.16015625 C-20.40727693 131.53810799 -17.06236328 135.05977322 -14.578125 140.16015625 C-13.72115358 145.72050572 -13.36509917 151.56137599 -15.78515625 156.74609375 C-19.09893417 161.25954316 -22.87581574 165.21691712 -28.578125 166.16015625 C-33.41696888 166.82136473 -37.74693957 167.27049408 -42.0390625 164.66796875 C-44.67658162 162.3732319 -47.00409978 160.30820669 -48.578125 157.16015625 C-67.33293287 154.3179063 -67.33293287 154.3179063 -84.75850868 160.12543678 C-91.46728081 165.32234127 -97.11300505 171.70926901 -102.68084717 178.07598877 C-105.13037772 180.83912314 -107.67576916 183.51090373 -110.21289062 186.19335938 C-116.67174132 193.06402855 -123.02328799 200.02529264 -128.98803711 207.33178711 C-129.84276611 208.26514893 -130.69749512 209.19851074 -131.578125 210.16015625 C-132.568125 210.16015625 -133.558125 210.16015625 -134.578125 210.16015625 C-134.64841924 194.85177095 -134.7012127 179.54339312 -134.73356152 164.23488235 C-134.74898545 157.12577141 -134.76998858 150.01676114 -134.80444336 142.90771484 C-134.83448362 136.70652244 -134.85373246 130.50540301 -134.86039048 124.30413985 C-134.8642782 121.0250669 -134.87492979 117.74624947 -134.89531517 114.46723175 C-134.91723693 110.7934607 -134.92008571 107.12011547 -134.91870117 103.44628906 C-134.929487 102.37669449 -134.94027283 101.30709991 -134.9513855 100.20509338 C-134.88171986 83.01197098 -128.22349619 67.02051984 -116.453125 54.47265625 C-100.46919093 39.43053648 -83.01878593 36.58453511 -61.91040039 36.52368164 C-60.03856079 36.51002563 -60.03856079 36.51002563 -58.12890625 36.49609375 C-56.45308472 36.50455322 -56.45308472 36.50455322 -54.7434082 36.51318359 C-48.57044271 35.8247063 -44.55074534 32.77698529 -40.578125 28.16015625 C-38.59145462 24.79809868 -37.37025977 21.5013264 -36.265625 17.78515625 C-34.03534215 10.86077022 -29.63881017 5.20061303 -23.578125 1.16015625 C-16.90541512 -2.15210949 -7.0694949 -2.30294152 0 0 Z " fill="#3099D9" transform="translate(378.578125,73.83984375)"/>
<path d="M0 0 C24.59541985 0 24.59541985 0 29.7421875 4.53515625 C33.3997517 9.46656177 34.41508622 11.77370676 34 18 C32.08695231 23.31402136 29.25564937 25.57472124 25 29 C25.6496875 29.92683594 26.299375 30.85367187 26.96875 31.80859375 C27.81262221 33.01814391 28.65636558 34.22778397 29.5 35.4375 C29.92925781 36.04916016 30.35851562 36.66082031 30.80078125 37.29101562 C34 41.88671875 34 41.88671875 34 43 C31.7421875 43.40234375 31.7421875 43.40234375 29 43 C27.5308866 40.861756 26.33894758 38.8347456 25.125 36.5625 C22.44738079 32.02943115 22.44738079 32.02943115 18.12353516 29.28613281 C13.62258337 28.46582062 9.6608746 28.79005069 5 29 C5 33.62 5 38.24 5 43 C3.35 43 1.7 43 0 43 C0 28.81 0 14.62 0 0 Z " fill="#161616" transform="translate(267,338)"/>
<path d="M0 0 C3.63 0 7.26 0 11 0 C12.00508801 1.78881736 13.00392736 3.58114696 14 5.375 C14.556875 6.37273437 15.11375 7.37046875 15.6875 8.3984375 C17 11 17 11 17 13 C20.76903625 9.95577841 23.97109512 7.11459735 26.75 3.125 C28.75919969 0.62722442 29.59731473 0.06302415 32.8203125 -0.44140625 C35.58113925 -0.43787578 38.25746627 -0.30743706 41 0 C37.60999755 4.78077269 34.11996045 9.08588783 29.80859375 13.06640625 C27.22893796 15.82435359 25.14127417 18.89582411 23 22 C23.33322266 22.60062256 23.66644531 23.20124512 24.00976562 23.82006836 C25.50868755 26.52467905 27.00438406 29.23105986 28.5 31.9375 C29.02464844 32.88302734 29.54929687 33.82855469 30.08984375 34.80273438 C30.58613281 35.70185547 31.08242188 36.60097656 31.59375 37.52734375 C32.05458984 38.35999756 32.51542969 39.19265137 32.99023438 40.05053711 C34 42 34 42 34 43 C30.37 43 26.74 43 23 43 C20.69 38.71 18.38 34.42 16 30 C12.19324295 33.12154078 9.0857273 35.8103594 6.3125 39.875 C4.22003751 42.48341215 3.3346921 42.95145031 -0.04296875 43.44140625 C-3.05975456 43.43786957 -5.99976395 43.30584931 -9 43 C3.70425139 28.01549836 3.70425139 28.01549836 8.3359375 23.94921875 C8.88507813 23.30597656 9.43421875 22.66273438 10 22 C9.56982071 18.98992572 8.37367187 16.57845819 6.93359375 13.92578125 C6.53076172 13.17619141 6.12792969 12.42660156 5.71289062 11.65429688 C5.29201172 10.88150391 4.87113281 10.10871094 4.4375 9.3125 C3.60109687 7.76788299 2.76636624 6.22235873 1.93359375 4.67578125 C1.56290771 3.99427002 1.19222168 3.31275879 0.81030273 2.6105957 C0 1 0 1 0 0 Z " fill="#080808" transform="translate(401,338)"/>
<path d="M0 0 C1.32 0 2.64 0 4 0 C5.87803731 2.00283396 7.45203333 3.92201134 9.0625 6.125 C10.03350117 7.40781935 11.00486622 8.69036334 11.9765625 9.97265625 C12.47317383 10.63668457 12.96978516 11.30071289 13.48144531 11.98486328 C15.91689139 15.21672372 18.42899419 18.38725189 20.9375 21.5625 C21.82179509 22.68866037 22.7059184 23.81495565 23.58984375 24.94140625 C25.71424096 27.63735928 27.85580978 30.31976222 30 33 C30.33 22.11 30.66 11.22 31 0 C32.32 0 33.64 0 35 0 C35 14.19 35 28.38 35 43 C33.68 43 32.36 43 31 43 C29.12196269 40.99716604 27.54796667 39.07798866 25.9375 36.875 C24.96649883 35.59218065 23.99513378 34.30963666 23.0234375 33.02734375 C22.52682617 32.36331543 22.03021484 31.69928711 21.51855469 31.01513672 C19.08310861 27.78327628 16.57100581 24.61274811 14.0625 21.4375 C13.17820491 20.31133963 12.2940816 19.18504435 11.41015625 18.05859375 C9.28575904 15.36264072 7.14419022 12.68023778 5 10 C4.67 20.89 4.34 31.78 4 43 C2.68 43 1.36 43 0 43 C0 28.81 0 14.62 0 0 Z " fill="#060606" transform="translate(345,338)"/>
<path d="M0 0 C2.35125 -0.061875 4.7025 -0.12375 7.125 -0.1875 C7.85348145 -0.21481201 8.58196289 -0.24212402 9.33251953 -0.27026367 C14.84191808 -0.33974754 18.32339059 1.30481404 22.875 4.1875 C24.78293633 7.26139742 24.49962797 10.54311455 24 14 C22.8016341 16.75624156 21.87309088 18.37137456 19.4375 20.125 C15.73393246 21.45448578 12.14855941 21.20840349 8.25 21.125 C4.16625 21.063125 4.16625 21.063125 0 21 C0 14.07 0 7.14 0 0 Z " fill="#FCFCFC" transform="translate(272,342)"/>
<path d="M0 0 C1.65 0 3.3 0 5 0 C5.0093457 0.90766113 5.01869141 1.81532227 5.02832031 2.75048828 C5.07250484 6.13926814 5.13419111 9.52681226 5.20751953 12.91503906 C5.2356311 14.37748705 5.25689431 15.8400842 5.27099609 17.30273438 C5.29256419 19.41353169 5.33927656 21.52255429 5.390625 23.6328125 C5.41157227 24.90012207 5.43251953 26.16743164 5.45410156 27.47314453 C6.08922337 31.57644043 7.42026315 33.78347738 10 37 C14.19603586 39.09801793 19.44185319 38.54697762 24 38 C27.72833011 35.36823757 29.20546993 33.39592253 30 29 C30.14774861 26.75759423 30.24744368 24.51183457 30.31640625 22.265625 C30.35830078 20.97011719 30.40019531 19.67460937 30.44335938 18.33984375 C30.48316671 16.97656524 30.52287906 15.61328394 30.5625 14.25 C30.60572274 12.87108125 30.64933821 11.49217474 30.69335938 10.11328125 C30.79943958 6.7422881 30.9014985 3.37122174 31 0 C32.32 0 33.64 0 35 0 C35.0992963 4.58978038 35.17166748 9.17892788 35.21972656 13.76953125 C35.23977222 15.32921244 35.26701657 16.88881913 35.30175781 18.44824219 C35.35059126 20.69745314 35.37303815 22.9456659 35.390625 25.1953125 C35.41127014 25.8861795 35.43191528 26.57704651 35.45318604 27.28884888 C35.45549646 32.33782842 34.11881571 35.09323521 31 39 C26.99037502 43.00962498 23.46403687 43.32745147 18 43.5 C12.29400444 43.33164607 9.10093094 42.99009497 5 39 C0.47415631 34.15088176 -0.25221835 28.50067319 -0.1953125 22.0703125 C-0.18886719 20.78125 -0.18242188 19.4921875 -0.17578125 18.1640625 C-0.15907463 16.81770558 -0.14214479 15.47135141 -0.125 14.125 C-0.11495664 12.75521483 -0.10583317 11.38542258 -0.09765625 10.015625 C-0.07414412 6.67690244 -0.0412793 3.33854239 0 0 Z " fill="#111111" transform="translate(114,338)"/>
<path d="M0 0 C1.32 0 2.64 0 4 0 C4.01458252 0.8470752 4.02916504 1.69415039 4.04418945 2.56689453 C4.10551177 5.73181934 4.17971352 8.89611504 4.26245117 12.06054688 C4.29555386 13.4259925 4.32363086 14.79157013 4.34643555 16.15722656 C4.38024991 18.12853224 4.43408286 20.09946191 4.48828125 22.0703125 C4.51446533 23.25383301 4.54064941 24.43735352 4.56762695 25.65673828 C5.15454675 30.19501031 6.60420423 33.62451727 9.87890625 36.8515625 C13.74273156 38.94357841 17.73454483 38.4985597 22 38 C25.57246913 36.63182033 26.64632848 35.59444499 28.59692383 32.31591797 C30.14082819 28.66717793 30.42439886 26.01717144 30.51171875 22.0703125 C30.54716797 20.78125 30.58261719 19.4921875 30.61914062 18.1640625 C30.64223493 16.81771358 30.66501755 15.47135928 30.6875 14.125 C30.72070883 12.75517629 30.75520175 11.38538308 30.79101562 10.015625 C30.87330159 6.6771659 30.94251928 3.33896315 31 0 C32.32 0 33.64 0 35 0 C35.07465394 4.14425088 35.12883721 8.28813624 35.16479492 12.43286133 C35.17979877 13.84015734 35.20020863 15.24740724 35.22631836 16.65454102 C35.26307665 18.68777907 35.27980984 20.72039432 35.29296875 22.75390625 C35.3086792 23.97408447 35.32438965 25.1942627 35.34057617 26.45141602 C34.89221215 31.12307988 33.62548989 35.11206122 30.5 38.7421875 C24.19036247 43.50727834 18.71971753 43.68997475 11 43 C6.65659432 41.7909314 4.39232305 39.57013853 1.828125 35.84375 C-1.25817338 29.38309872 -0.41805497 21.98696475 -0.25 15 C-0.22990336 13.54299331 -0.21165818 12.08595985 -0.1953125 10.62890625 C-0.15156901 7.0853745 -0.08271767 3.54286123 0 0 Z " fill="#080808" transform="translate(211,338)"/>
<path d="M0 0 C9.9 0 19.8 0 30 0 C30 1.32 30 2.64 30 4 C21.75 4 13.5 4 5 4 C5 9.61 5 15.22 5 21 C12.26 21 19.52 21 27 21 C27 22.32 27 23.64 27 25 C19.74 25 12.48 25 5 25 C5 30.94 5 36.88 5 43 C3.35 43 1.7 43 0 43 C0 28.81 0 14.62 0 0 Z " fill="#141414" transform="translate(68,338)"/>
<path d="M0 0 C11.55 0 23.1 0 35 0 C35 1.32 35 2.64 35 4 C30.05 4 25.1 4 20 4 C20 16.87 20 29.74 20 43 C18.35 43 16.7 43 15 43 C15 30.13 15 17.26 15 4 C10.05 4 5.1 4 0 4 C0 2.68 0 1.36 0 0 Z " fill="#161616" transform="translate(163,338)"/>
<path d="M0 0 C1.32 0 2.64 0 4 0 C4 14.19 4 28.38 4 43 C2.68 43 1.36 43 0 43 C0 28.81 0 14.62 0 0 Z " fill="#010101" transform="translate(319,338)"/>
<path d="M0 0 C1.06637695 -0.00193359 1.06637695 -0.00193359 2.15429688 -0.00390625 C7.63700501 0.10726387 10.8819504 0.98056032 15.125 4.375 C13.125 5.375 13.125 5.375 9.625 4.4375 C2.00988084 2.44076894 -4.64111325 2.56557737 -11.7578125 6.0859375 C-15.13686928 8.14329679 -18.03382159 10.63431343 -20.875 13.375 C-20.79302415 10.58782111 -20.31264605 8.85747233 -18.42578125 6.77734375 C-12.6117878 1.64438207 -7.80353098 -0.0145182 0 0 Z " fill="#4EBEE1" transform="translate(367.875,72.625)"/>
<path d="M0 0 C0.33 0 0.66 0 1 0 C1.14526075 5.79420413 1.28752037 11.58847225 1.42724609 17.3828125 C1.47496559 19.3453968 1.52344207 21.30796287 1.57275391 23.27050781 C1.88821618 35.85037092 2.06261431 48.41626258 2 61 C2 62.32 2 63.64 2 65 C1.01 65.495 1.01 65.495 0 66 C0 44.22 0 22.44 0 0 Z " fill="#2C85D7" transform="translate(246,218)"/>
<path d="M0 0 C2.09545898 0.42553711 2.09545898 0.42553711 4 1 C1.71643754 3.34138543 -0.57813374 5.67166982 -2.875 8 C-3.85146484 9.00160156 -3.85146484 9.00160156 -4.84765625 10.0234375 C-5.47285156 10.65507812 -6.09804688 11.28671875 -6.7421875 11.9375 C-7.3182373 12.52402344 -7.89428711 13.11054688 -8.48779297 13.71484375 C-10 15 -10 15 -12 15 C-10.58397787 11.85093585 -8.86264918 9.50476328 -6.5625 6.9375 C-5.96566406 6.26589844 -5.36882812 5.59429687 -4.75390625 4.90234375 C-3.88572266 3.96068359 -3.88572266 3.96068359 -3 3 C-2.51402344 2.40316406 -2.02804687 1.80632812 -1.52734375 1.19140625 C-0.77130859 0.60166016 -0.77130859 0.60166016 0 0 Z " fill="#41A4D2" transform="translate(267,124)"/>
<path d="M0 0 C6.93165249 6.74924058 6.93165249 6.74924058 7.1953125 11.57421875 C7.1820639 12.9454488 7.15828025 14.31660985 7.125 15.6875 C7.11597656 16.38939453 7.10695313 17.09128906 7.09765625 17.81445312 C7.07413704 19.54311525 7.03826713 21.27160145 7 23 C6.67 23 6.34 23 6 23 C5.85304688 21.71416016 5.85304688 21.71416016 5.703125 20.40234375 C4.81237993 13.59121548 3.74338584 8.73985829 0 3 C0 2.01 0 1.02 0 0 Z " fill="#48B8DC" transform="translate(385,80)"/>
<path d="M0 0 C0.66 0 1.32 0 2 0 C0.84078049 3.47765854 -0.46826818 4.4200475 -3.625 6.15625 C-7.68207472 7.59757918 -11.83622708 7.59737431 -16.109375 7.7265625 C-19.19560751 7.78816029 -19.19560751 7.78816029 -22 10 C-21.34 8.68 -20.68 7.36 -20 6 C-16.04 6 -12.08 6 -8 6 C-8 5.34 -8 4.68 -8 4 C-5.09399739 2.74335022 -3.20395416 2 0 2 C0 1.34 0 0.68 0 0 Z " fill="#53A5C7" transform="translate(381,118)"/>
<path d="M0 0 C-0.680625 0.165 -1.36125 0.33 -2.0625 0.5 C-5.79928238 2.40814419 -7.75819546 4.97801378 -10.3515625 8.22265625 C-12 10 -12 10 -15 11 C-13.60991124 5.74855359 -10.1957125 3.12699328 -6 0 C-3.50907189 -1.24546405 -2.58919267 -0.7767578 0 0 Z " fill="#4D94C4" transform="translate(344,204)"/>
<path d="M0 0 C2.31 0 4.62 0 7 0 C3.59191808 2.27205462 0.20167467 3.49581303 -3.625 4.90234375 C-5.98362201 5.99243057 -7.31363541 7.05291456 -9 9 C-9.99 8.67 -10.98 8.34 -12 8 C-8.51279384 3.6409923 -5.27239085 3.05447817 0 2 C0 1.34 0 0.68 0 0 Z " fill="#489FC9" transform="translate(291,137)"/>
<path d="M0 0 C0.33 0.99 0.66 1.98 1 3 C-0.62339805 4.70884005 -2.29319053 6.37446717 -4 8 C-4.66 8 -5.32 8 -6 8 C-6 8.66 -6 9.32 -6 10 C-7.98 10.99 -7.98 10.99 -10 12 C-8.62968895 6.34746692 -4.32310587 3.4886459 0 0 Z " fill="#4AA2D0" transform="translate(364,150)"/>
<path d="M0 0 C2 1 2 1 3 2 C4.62853535 1.93579251 6.25449212 1.7987936 7.875 1.625 C8.75929688 1.53476563 9.64359375 1.44453125 10.5546875 1.3515625 C13.13106904 1.05520218 13.13106904 1.05520218 16 0 C16.66 0.66 17.32 1.32 18 2 C12.58551754 4.34139782 6.81956432 4.84963812 1 4 C-0.83203125 2.48046875 -0.83203125 2.48046875 -2 1 C-1.34 0.67 -0.68 0.34 0 0 Z " fill="#4D89B8" transform="translate(338,236)"/>
<path d="M0 0 C0.99 0.495 0.99 0.495 2 1 C2 8.33333333 2 15.66666667 2 23 C1.34 23.33 0.68 23.66 0 24 C0 16.08 0 8.16 0 0 Z " fill="#387FCA" transform="translate(246,260)"/>
<path d="M0 0 C4.77576339 0.4682121 8.04476345 1.24331998 12 4 C9.3333581 5.33332095 7.83319697 4.67102033 5 4 C5 3.34 5 2.68 5 2 C3.35 1.67 1.7 1.34 0 1 C0 0.67 0 0.34 0 0 Z " fill="#63B3CD" transform="translate(371,73)"/>
<path d="M0 0 C-0.66 1.32 -1.32 2.64 -2 4 C-4.31 3.67 -6.62 3.34 -9 3 C-3.2 0 -3.2 0 0 0 Z " fill="#4AADD3" transform="translate(332,109)"/>
</svg>
