<?xml version="1.0" encoding="UTF-8"?>
<svg version="1.1" xmlns="http://www.w3.org/2000/svg" width="500" height="500">
<path d="M0 0 C165 0 330 0 500 0 C500 165 500 330 500 500 C335 500 170 500 0 500 C0 335 0 170 0 0 Z " fill="#000000" transform="translate(0,0)"/>
<path d="M0 0 C6.85572172 3.91283153 11.88088457 9.48349724 14.25390625 17.07421875 C15.72643366 23.614363 14.52334734 30.0082724 11.6875 36 C7.83769011 41.23692829 3.64037607 46.180676 -2.3125 49 C-4.71850817 49.33749436 -7.13886041 49.58044497 -9.5625 49.75 C-15.8953814 50.36493975 -19.6146037 52.05921554 -24.33203125 56.31640625 C-31.50795337 62.41664773 -41.68421073 62.13094588 -50.61328125 62.17578125 C-52.41342315 62.19897973 -54.2135534 62.22309708 -56.01367188 62.24804688 C-58.8177067 62.28307588 -61.62131047 62.31248231 -64.42553711 62.32592773 C-78.89332457 62.16261415 -78.89332457 62.16261415 -92.3125 67 C-93.364375 67.5775 -94.41625 68.155 -95.5 68.75 C-102.51342003 74.36073602 -107.87593427 80.95588402 -109.3125 90 C-109.39821455 92.26863488 -109.43023736 94.5395648 -109.42602539 96.80981445 C-109.42617142 97.47378738 -109.42631744 98.13776031 -109.4264679 98.82185364 C-109.42577483 101.00236349 -109.41801099 103.18278644 -109.41015625 105.36328125 C-109.40828992 106.8807114 -109.40686703 108.39814215 -109.40586853 109.91557312 C-109.40206032 113.89891235 -109.39224459 117.8822148 -109.38116455 121.86553955 C-109.37091389 125.93444318 -109.36636309 130.00335279 -109.36132812 134.07226562 C-109.35062074 142.04819391 -109.33356478 150.02409237 -109.3125 158 C-108.6525 158 -107.9925 158 -107.3125 158 C-107.11785156 157.28972656 -106.92320312 156.57945312 -106.72265625 155.84765625 C-105.16545796 152.7030647 -103.24196607 151.19818832 -100.56420898 149.00463867 C-94.80679665 144.03130671 -92.01479943 139.89576945 -91.375 132.171875 C-91.19782135 127.2716473 -91.31800688 122.41091565 -91.46484375 117.51171875 C-91.58431325 110.1598314 -89.47549219 105.28178126 -85.5 99.25 C-79.22430212 92.79499646 -72.28881037 89.2847248 -63.19415283 88.9135437 C-60.71474778 88.88469526 -58.23734077 88.88756354 -55.7578125 88.90234375 C-54.85626434 88.9037587 -53.95471619 88.90517365 -53.02584839 88.90663147 C-50.163031 88.9122026 -47.30029352 88.92474974 -44.4375 88.9375 C-42.48958447 88.94251873 -40.5416677 88.94708099 -38.59375 88.95117188 C-33.83330282 88.96216258 -29.07291493 88.97940723 -24.3125 89 C-24.19261719 88.23816406 -24.07273437 87.47632813 -23.94921875 86.69140625 C-22.79315908 81.80474911 -19.28456045 78.87948327 -15.6875 75.625 C-10.36478927 73.06221335 -4.94289426 73.11784812 0.77734375 74.5078125 C4.98175753 76.10861775 7.72488349 78.69879875 10.6875 82 C11.3475 82.66 12.0075 83.32 12.6875 84 C14.90797863 90.48952788 14.63651681 98.52050264 12.1875 104.875 C9.36113707 110.4466832 4.55233527 114.04505491 -1.3125 116 C-7.27726294 116.53385142 -12.26995595 116.55270149 -17.3125 113 C-20.02021456 110.24768779 -22.57839103 107.46821795 -24.3125 104 C-30.02330516 103.90075467 -35.73360281 103.82835379 -41.44506836 103.78027344 C-43.38591258 103.76021972 -45.32669685 103.73296955 -47.26733398 103.69824219 C-50.06509232 103.64944825 -52.86204845 103.62696873 -55.66015625 103.609375 C-56.5208522 103.58872986 -57.38154816 103.56808472 -58.26832581 103.54681396 C-65.03247432 103.54432273 -69.24123574 105.02986513 -74.21801758 109.84277344 C-75.71787673 112.79899817 -75.74905984 115.20863317 -75.82421875 118.515625 C-75.85966797 119.76601562 -75.89511719 121.01640625 -75.93164062 122.3046875 C-75.95419922 123.60664063 -75.97675781 124.90859375 -76 126.25 C-76.03416016 127.56742188 -76.06832031 128.88484375 -76.10351562 130.2421875 C-76.18600706 133.49470678 -76.2551567 136.74695596 -76.3125 140 C-71.91523415 140.03534995 -67.52197684 139.99349818 -63.125 139.9375 C-61.87912109 139.94845703 -60.63324219 139.95941406 -59.34960938 139.97070312 C-52.94980452 140.09157623 -52.94980452 140.09157623 -47.40600586 137.4453125 C-45.8679666 135.3616173 -45.8679666 135.3616173 -44.3125 132 C-39.86642571 127.95811428 -34.84335349 127.48092828 -28.98828125 127.515625 C-24.12476049 128.39602876 -20.6406967 131.47096384 -17.3125 135 C-14.86582081 138.54266797 -15.07616767 141.8407235 -15.125 146.0625 C-15.13144531 147.29097656 -15.13789063 148.51945313 -15.14453125 149.78515625 C-15.3125 153 -15.3125 153 -16.3125 156 C-16.9725 156 -17.6325 156 -18.3125 156 C-18.56902344 156.60328125 -18.82554687 157.2065625 -19.08984375 157.828125 C-21.19196886 161.5622514 -24.44225622 163.33281806 -28.3125 165 C-33.9312191 166.02330803 -38.54812658 165.24843642 -43.3125 162 C-45.23706202 160.09071228 -46.70910936 158.21645176 -48.3125 156 C-48.3125 155.34 -48.3125 154.68 -48.3125 154 C-58.57566067 151.19821853 -69.52489014 150.25442912 -79.3125 155 C-87.93027427 160.90160161 -95.20113397 168.58492616 -102.375 176.125 C-102.85044376 176.62409 -103.32588753 177.12318001 -103.81573868 177.63739395 C-111.36278012 185.58788909 -118.74020331 193.69343939 -125.74389648 202.12841797 C-126.59153564 203.07604004 -127.4391748 204.02366211 -128.3125 205 C-128.9725 205 -129.6325 205 -130.3125 205 C-130.6425 205.99 -130.9725 206.98 -131.3125 208 C-131.9725 208 -132.6325 208 -133.3125 208 C-133.4297814 192.35230648 -133.51770581 176.70473342 -133.57156086 161.05670834 C-133.59724168 153.78952701 -133.63219573 146.52262022 -133.68969727 139.25561523 C-133.73984539 132.91485741 -133.77186439 126.57429861 -133.78294247 120.23334795 C-133.78940906 116.88181107 -133.80709249 113.53129013 -133.84115028 110.17985344 C-134.02978424 90.83605215 -133.17388284 76.02746138 -121.3125 60 C-120.82910156 59.34515625 -120.34570312 58.6903125 -119.84765625 58.015625 C-111.17751911 47.15994082 -97.84794719 39.75554596 -84.3125 37 C-77.94706289 36.48452222 -71.57417281 36.51633109 -65.19140625 36.47265625 C-55.17666622 36.30155014 -47.54939129 35.40519109 -40.3125 28 C-39.09668733 25.61513668 -38.19099367 23.49626617 -37.3125 21 C-36.63109255 19.26842341 -35.94328211 17.53935654 -35.25 15.8125 C-34.92902344 14.99394531 -34.60804688 14.17539063 -34.27734375 13.33203125 C-33.95894531 12.56246094 -33.64054687 11.79289062 -33.3125 11 C-33.03148437 10.31550781 -32.75046875 9.63101563 -32.4609375 8.92578125 C-30.99426811 6.46636626 -29.27197561 5.10857467 -27 3.375 C-26.24074219 2.78460938 -25.48148437 2.19421875 -24.69921875 1.5859375 C-17.18812183 -3.40506962 -8.18291942 -3.71609644 0 0 Z " fill="#2996D7" transform="translate(378.3125,75)"/>
<path d="M0 0 C21 0 21 0 30 4 C33.59902317 8.6523958 34.74324663 12.16020506 34 18 C32.08695231 23.31402136 29.25564937 25.57472124 25 29 C25.6496875 29.92683594 26.299375 30.85367187 26.96875 31.80859375 C27.81262221 33.01814391 28.65636558 34.22778397 29.5 35.4375 C29.92925781 36.04916016 30.35851562 36.66082031 30.80078125 37.29101562 C34 41.88671875 34 41.88671875 34 43 C31.80078125 43.3671875 31.80078125 43.3671875 29 43 C27.12445157 41.04990672 25.69958571 39.32393995 24.1875 37.125 C23.78080078 36.56941406 23.37410156 36.01382813 22.95507812 35.44140625 C20 31.31919643 20 31.31919643 20 29 C15.05 29 10.1 29 5 29 C5 33.62 5 38.24 5 43 C3.35 43 1.7 43 0 43 C0 28.81 0 14.62 0 0 Z " fill="#E3E3E3" transform="translate(267,338)"/>
<path d="M0 0 C3.63 0 7.26 0 11 0 C12.00508801 1.78881736 13.00392736 3.58114696 14 5.375 C14.556875 6.37273437 15.11375 7.37046875 15.6875 8.3984375 C17 11 17 11 17 13 C20.68681022 10.12248959 23.41386283 7.45937856 26.1875 3.6875 C28.42204923 1.00503436 29.41049878 0.10435765 32.890625 -0.51171875 C35.63760051 -0.50115346 38.2773497 -0.35448612 41 0 C39.03590303 4.75747933 35.36897613 7.68594295 31.703125 11.171875 C28.46445396 14.56031118 25.73628883 18.20236277 23 22 C23.33322266 22.60062256 23.66644531 23.20124512 24.00976562 23.82006836 C25.50868755 26.52467905 27.00438406 29.23105986 28.5 31.9375 C29.02464844 32.88302734 29.54929687 33.82855469 30.08984375 34.80273438 C30.58613281 35.70185547 31.08242188 36.60097656 31.59375 37.52734375 C32.05458984 38.35999756 32.51542969 39.19265137 32.99023438 40.05053711 C34 42 34 42 34 43 C30.37 43 26.74 43 23 43 C20.69 38.71 18.38 34.42 16 30 C12.19324295 33.12154078 9.0857273 35.8103594 6.3125 39.875 C4.22003751 42.48341215 3.3346921 42.95145031 -0.04296875 43.44140625 C-3.05975456 43.43786957 -5.99976395 43.30584931 -9 43 C-5.27688451 38.64123065 -1.52564832 34.30987069 2.25390625 30 C4.85725487 27.01808838 7.42906251 24.00987804 10 21 C9.44570313 19.90300781 8.89140625 18.80601562 8.3203125 17.67578125 C7.58843442 16.22140813 6.85666955 14.76697804 6.125 13.3125 C5.76019531 12.59126953 5.39539063 11.87003906 5.01953125 11.12695312 C4.48779297 10.06831055 4.48779297 10.06831055 3.9453125 8.98828125 C3.62062988 8.34415283 3.29594727 7.70002441 2.96142578 7.03637695 C1.87499374 4.73522671 0.94508726 2.36271816 0 0 Z " fill="#EEEEEE" transform="translate(401,338)"/>
<path d="M0 0 C5.83350505 1.16670101 6.18276148 1.93313459 9.5 6.5625 C10.36205858 7.7401336 11.22677969 8.91582145 12.09375 10.08984375 C12.55523437 10.71874512 13.01671875 11.34764648 13.4921875 11.99560547 C16.22171365 15.62407206 19.11792529 19.11738043 22 22.625 C23.1052794 23.97044083 24.20951762 25.31673795 25.3125 26.6640625 C25.78300781 27.23592285 26.25351562 27.8077832 26.73828125 28.39697266 C27.9013493 29.87466321 28.95688386 31.43532579 30 33 C30.33 22.11 30.66 11.22 31 0 C32.65 0 34.3 0 36 0 C36 14.19 36 28.38 36 43 C34.35 43 32.7 43 31 43 C29.07848357 41.02921392 27.58350507 39.2187982 26 37 C25.0447705 35.7213083 24.08765707 34.44402233 23.12890625 33.16796875 C22.37504639 32.15355713 22.37504639 32.15355713 21.60595703 31.11865234 C18.81516435 27.43691034 15.87047894 23.8812308 12.9375 20.3125 C11.84109243 18.97637156 10.74594944 17.63920396 9.65234375 16.30078125 C8.95612915 15.45253784 8.95612915 15.45253784 8.24584961 14.5871582 C7.08928002 13.11373886 6.03902584 11.55853877 5 10 C4.67 20.89 4.34 31.78 4 43 C2.68 43 1.36 43 0 43 C0 28.81 0 14.62 0 0 Z " fill="#E7E7E7" transform="translate(345,338)"/>
<path d="M0 0 C1.65 0 3.3 0 5 0 C5.01458252 0.87736816 5.02916504 1.75473633 5.04418945 2.65869141 C5.1054968 5.93549321 5.17969333 9.21148944 5.26245117 12.48779297 C5.29556291 13.9017449 5.32363716 15.31582464 5.34643555 16.72998047 C5.38023775 18.77105823 5.43255964 20.81097928 5.48828125 22.8515625 C5.51446533 24.07697754 5.54064941 25.30239258 5.56762695 26.56494141 C6.04245018 30.33725238 7.00717772 32.7761008 9 36 C13.27500739 38.85000493 16.9904524 38.3687027 22 38 C24.92511453 37.5666741 24.92511453 37.5666741 27 36 C29.71221965 31.51764341 30.40054321 28.05457791 30.51171875 22.8515625 C30.52966995 22.19417084 30.54762115 21.53677917 30.56611633 20.85946655 C30.61984437 18.78137428 30.65399125 16.70350653 30.6875 14.625 C30.72070653 13.20700024 30.75519924 11.78902999 30.79101562 10.37109375 C30.87554651 6.9142782 30.94253568 3.45738362 31 0 C32.65 0 34.3 0 36 0 C36.07480519 3.98347226 36.12890718 7.96666594 36.16479492 11.95068359 C36.18709408 13.96336248 36.22523653 15.97584584 36.26367188 17.98828125 C36.37924918 33.32153737 36.37924918 33.32153737 31.58276367 38.54272461 C26.10788418 43.36734076 21.17197182 43.33963159 14.17578125 43.28515625 C8.93722917 42.81478196 6.74599572 40.9330667 3.25 37.0625 C0.36787423 32.30699247 -0.24258128 28.50330029 -0.1953125 22.94921875 C-0.1924826 22.29041214 -0.18965271 21.63160553 -0.18673706 20.95283508 C-0.17560924 18.86419938 -0.15051948 16.77600444 -0.125 14.6875 C-0.11496059 13.26498018 -0.10583642 11.8424536 -0.09765625 10.41992188 C-0.07569447 6.94647319 -0.04121646 3.47327967 0 0 Z " fill="#E1E1E1" transform="translate(114,338)"/>
<path d="M0 0 C2.35125 -0.061875 4.7025 -0.12375 7.125 -0.1875 C7.85348145 -0.21481201 8.58196289 -0.24212402 9.33251953 -0.27026367 C13.99917796 -0.32911901 17.04738212 0.56265019 21 3 C23.18059774 5.39162332 23.97285956 6.97228188 24.05859375 10.21875 C23.59832243 16.25124222 23.59832243 16.25124222 21.6328125 18.7109375 C18.88313714 20.88173384 16.35929316 21.1230022 12.98828125 21.09765625 C11.96408081 21.09390991 11.96408081 21.09390991 10.91918945 21.09008789 C10.05898193 21.08098389 9.19877441 21.07187988 8.3125 21.0625 C4.1978125 21.0315625 4.1978125 21.0315625 0 21 C0 14.07 0 7.14 0 0 Z " fill="#020202" transform="translate(272,342)"/>
<path d="M0 0 C1.32 0 2.64 0 4 0 C4.01458252 0.8470752 4.02916504 1.69415039 4.04418945 2.56689453 C4.10551177 5.73181934 4.17971352 8.89611504 4.26245117 12.06054688 C4.29555386 13.4259925 4.32363086 14.79157013 4.34643555 16.15722656 C4.38024991 18.12853224 4.43408286 20.09946191 4.48828125 22.0703125 C4.51446533 23.25383301 4.54064941 24.43735352 4.56762695 25.65673828 C5.15454675 30.19501031 6.60420423 33.62451727 9.87890625 36.8515625 C13.73683243 38.94038441 17.74048621 38.51086551 22 38 C24.91823148 36.78407021 26.36735772 35.95613018 28.09912109 33.33886719 C29.3362201 30.12710337 29.32953978 27.26538238 29.4140625 23.828125 C29.43342865 23.1457074 29.4527948 22.46328979 29.4727478 21.76019287 C29.53231098 19.59025392 29.57883446 17.42026123 29.625 15.25 C29.66320131 13.77471703 29.7022543 12.29945585 29.7421875 10.82421875 C29.83799235 7.21634582 29.92210916 3.60830917 30 0 C31.65 0 33.3 0 35 0 C35.09965569 4.26832981 35.17183391 8.53602469 35.21972656 12.80517578 C35.23971295 14.25418917 35.26691197 15.70312325 35.30175781 17.15185547 C35.68369903 33.45175867 35.68369903 33.45175867 31 39 C25.51904237 43.85060906 20.61843535 43.65246866 13.58203125 43.4453125 C9.66291473 42.95809409 7.34920512 42.21428473 4.296875 39.77734375 C0.5205604 34.60197283 -0.37155729 29.84843592 -0.29296875 23.53515625 C-0.28872391 22.85698349 -0.28447906 22.17881073 -0.28010559 21.48008728 C-0.26347941 19.34046598 -0.22586174 17.20183053 -0.1875 15.0625 C-0.17243222 13.60092518 -0.1587475 12.13933542 -0.14648438 10.67773438 C-0.11362977 7.11817603 -0.06196241 3.55918444 0 0 Z " fill="#E5E5E5" transform="translate(211,338)"/>
<path d="M0 0 C9.9 0 19.8 0 30 0 C30 1.32 30 2.64 30 4 C21.75 4 13.5 4 5 4 C5 9.61 5 15.22 5 21 C12.26 21 19.52 21 27 21 C27 22.32 27 23.64 27 25 C19.74 25 12.48 25 5 25 C5 30.94 5 36.88 5 43 C3.35 43 1.7 43 0 43 C0 28.81 0 14.62 0 0 Z " fill="#E5E5E5" transform="translate(68,338)"/>
<path d="M0 0 C11.55 0 23.1 0 35 0 C35 1.32 35 2.64 35 4 C30.05 4 25.1 4 20 4 C20 16.87 20 29.74 20 43 C18.35 43 16.7 43 15 43 C15 30.13 15 17.26 15 4 C10.05 4 5.1 4 0 4 C0 2.68 0 1.36 0 0 Z " fill="#E4E4E4" transform="translate(163,338)"/>
<path d="M0 0 C1.32 0 2.64 0 4 0 C4 14.19 4 28.38 4 43 C2.68 43 1.36 43 0 43 C0 28.81 0 14.62 0 0 Z " fill="#F4F4F4" transform="translate(319,338)"/>
<path d="M0 0 C0.66 0.33 1.32 0.66 2 1 C-0.31 3.64 -2.62 6.28 -5 9 C-5.66 8.34 -6.32 7.68 -7 7 C-4.66666667 4.66666667 -2.33333333 2.33333333 0 0 Z " fill="#277EB8" transform="translate(338,204)"/>
<path d="M0 0 C1.32 0.33 2.64 0.66 4 1 C-0.455 4.465 -0.455 4.465 -5 8 C-5 5 -5 5 -2.75 2.25 C-1.8425 1.5075 -0.935 0.765 0 0 Z " fill="#32B4DD" transform="translate(354,76)"/>
<path d="M0 0 C0.66 0.33 1.32 0.66 2 1 C1.51789063 1.47050781 1.03578125 1.94101563 0.5390625 2.42578125 C-0.40839844 3.35970703 -0.40839844 3.35970703 -1.375 4.3125 C-2.00148438 4.92738281 -2.62796875 5.54226562 -3.2734375 6.17578125 C-5.18086607 8.08812528 -5.18086607 8.08812528 -7 11 C-6.58485103 6.1565954 -4.53791301 4.18412171 -1 1 C-0.67 0.67 -0.34 0.34 0 0 Z " fill="#0C1D2A" transform="translate(309,180)"/>
<path d="M0 0 C3.84375 1.78125 3.84375 1.78125 5.25 3.75 C6.19251213 6.57753638 6.1345485 9.03993304 6 12 C4 8 2 4 0 0 Z " fill="#30AFD7" transform="translate(385,82)"/>
</svg>
